#!OML:ASF G:\JayActor3\Patient Classification 1\Patient 1\Session 2\male.ASF
:FULLY-SPECIFIED
:DEGREES
1707
root 33.6738 16.0553 -5.30807 1667.38 -82.5074 -222.986
lowerback 4.6839 -1.87973 -6.58452
upperback 2.87974 -2.8209 -0.313254
thorax 0.653457 -1.52795 3.46995
lowerneck -9.07656 1.3735 -0.123975
upperneck -8.84119 1.74045 7.22928
head -1.32624 0.627674 2.3546
rclavicle 1.88597e-014 2.32578e-014
rhumerus -51.7841 -0.479968 -71.9027
rradius 24.7808
rwrist -7.07354
rhand -23.3903 0.785898
rfingers 7.12502
rthumb 3.06618 -29.1718
lclavicle 1.88597e-014 2.32578e-014
lhumerus -14.8436 -13.6386 82.12
lradius 78.2482
lwrist 26.5797
lhand -17.8511 16.1602
lfingers 7.12502
lthumb 8.41407 45.9726
rfemur -45.2473 3.83308 14.8234
rtibia 29.188
rfoot -14.2158 -2.56809
rtoes 9.56689
lfemur 25.046 8.97758 -27.1623
ltibia 1.27222e-014
lfoot -10.0464 -0.284703
ltoes -21.1086
1708
root 33.4453 16.0445 -5.30965 1669.98 -82.5958 -225.562
lowerback 4.61742 -1.96303 -6.34481
upperback 2.83011 -2.91572 -0.190772
thorax 0.642945 -1.57011 3.46393
lowerneck -8.9059 1.39964 -0.0401742
upperneck -9.13236 1.7717 6.89711
head -1.44486 0.631586 2.23015
rclavicle 2.6985e-014 -1.47101e-014
rhumerus -51.5877 -0.600648 -71.834
rradius 24.8373
rwrist -7.22568
rhand -23.4359 0.806539
rfingers 7.12502
rthumb 3.02214 -29.1518
lclavicle 2.6985e-014 -1.47101e-014
lhumerus -15.6415 -13.469 82.7519
lradius 76.7671
lwrist 26.2797
lhand -17.9396 16.1758
lfingers 7.12502
lthumb 8.32859 45.9916
rfemur -45.1717 3.89249 14.4437
rtibia 29.9837
rfoot -14.0237 -3.26951
rtoes 9.92065
lfemur 25.7752 9.01363 -27.0617
ltibia -1.90833e-014
lfoot -8.83862 -0.70186
ltoes -21.4663
1709
root 33.2106 16.038 -5.31384 1672.38 -82.6674 -227.963
lowerback 4.53585 -2.03038 -6.09762
upperback 2.77375 -2.98834 -0.0576903
thorax 0.631447 -1.60104 3.46339
lowerneck -8.76392 1.42115 0.0479398
upperneck -9.36955 1.79167 6.53332
head -1.54008 0.633587 2.09482
rclavicle -1.01877e-014 -2.78299e-015
rhumerus -51.3892 -0.675232 -71.8296
rradius 24.8921
rwrist -7.4129
rhand -23.4543 0.835286
rfingers 7.12502
rthumb 3.00434 -29.1233
lclavicle -1.01877e-014 -2.78299e-015
lhumerus -16.5125 -13.2967 83.438
lradius 75.0973
lwrist 25.9857
lhand -18.1048 16.194
lfingers 7.12502
lthumb 8.16915 46.0161
rfemur -45.0682 3.91087 14.1559
rtibia 31.049
rfoot -13.7845 -4.17959
rtoes 10.0922
lfemur 26.513 9.06371 -26.9116
ltibia -3.18055e-015
lfoot -7.39944 -1.04873
ltoes -21.6075
1710
root 32.9706 16.0363 -5.32054 1674.6 -82.7302 -230.188
lowerback 4.44507 -2.08272 -5.84116
upperback 2.71162 -3.04058 0.0850923
thorax 0.616851 -1.62163 3.46669
lowerneck -8.66596 1.43058 0.139331
upperneck -9.5406 1.78993 6.14043
head -1.60509 0.628919 1.94957
rclavicle 1.09332e-015 7.55382e-015
rhumerus -51.1847 -0.70408 -71.8914
rradius 24.9495
rwrist -7.63164
rhand -23.4513 0.868129
rfingers 7.12502
rthumb 3.00723 -29.0904
lclavicle 1.09332e-015 7.55382e-015
lhumerus -17.4381 -13.1326 84.1666
lradius 73.2558
lwrist 25.7047
lhand -18.3773 16.1929
lfingers 7.12502
lthumb 7.90619 46.0251
rfemur -44.9609 3.89351 13.9531
rtibia 32.3303
rfoot -13.5125 -5.24482
rtoes 10.063
lfemur 27.2409 9.12298 -26.7123
ltibia 1.59028e-014
lfoot -5.70309 -1.28091
ltoes -21.492
1711
root 32.7271 16.0393 -5.32927 1676.57 -82.7922 -232.166
lowerback 4.35984 -2.11944 -5.56294
upperback 2.64338 -3.07224 0.238042
thorax 0.589975 -1.63143 3.46805
lowerneck -8.61208 1.4266 0.223246
upperneck -9.64987 1.76644 5.72875
head -1.64174 0.617298 1.79983
rclavicle 8.15017e-015 5.1684e-015
rhumerus -50.969 -0.692122 -72.0128
rradius 25.006
rwrist -7.86589
rhand -23.4332 0.920859
rfingers 7.12502
rthumb 3.02474 -29.0374
lclavicle 8.15017e-015 5.1684e-015
lhumerus -18.407 -12.9738 84.9273
lradius 71.2665
lwrist 25.4393
lhand -18.7483 16.192
lfingers 7.12502
lthumb 7.54812 46.0373
rfemur -44.8631 3.85911 13.822
rtibia 33.7589
rfoot -13.2354 -6.33643
rtoes 9.91799
lfemur 27.9453 9.19653 -26.4592
ltibia 4.77083e-014
lfoot -3.73032 -1.34143
ltoes -21.0594
1712
root 32.4817 16.0464 -5.33941 1678.19 -82.866 -233.819
lowerback 4.29877 -2.14079 -5.24587
upperback 2.57001 -3.0842 0.40206
thorax 0.540763 -1.63054 3.45973
lowerneck -8.60118 1.40917 0.292049
upperneck -9.69936 1.72265 5.3078
head -1.65139 0.599117 1.65014
rclavicle -9.83984e-015 7.15625e-015
rhumerus -50.7348 -0.634303 -72.1954
rradius 25.0673
rwrist -8.1123
rhand -23.3943 0.961282
rfingers 7.12502
rthumb 3.06234 -28.9965
lclavicle -9.83984e-015 7.15625e-015
lhumerus -19.407 -12.8075 85.7108
lradius 69.1516
lwrist 25.173
lhand -19.225 16.208
lfingers 7.12502
lthumb 7.08798 46.0693
rfemur -44.7707 3.82601 13.7529
rtibia 35.2564
rfoot -12.9831 -7.3001
rtoes 9.74956
lfemur 28.6155 9.29036 -26.1471
ltibia -3.18055e-014
lfoot -1.47457 -1.15421
ltoes -20.3586
1713
root 32.2361 16.0564 -5.35047 1679.34 -82.962 -235.018
lowerback 4.27616 -2.14494 -4.87549
upperback 2.49377 -3.07401 0.578754
thorax 0.462762 -1.6177 3.43579
lowerneck -8.62636 1.37961 0.351305
upperneck -9.70082 1.66071 4.87719
head -1.63927 0.574374 1.49954
rclavicle -5.87409e-014 -2.38542e-015
rhumerus -50.4722 -0.531039 -72.4359
rradius 25.1263
rwrist -8.35785
rhand -23.3483 1.02038
rfingers 7.12502
rthumb 3.10673 -28.9367
lclavicle -5.87409e-014 -2.38542e-015
lhumerus -20.4275 -12.6122 86.5049
lradius 66.9313
lwrist 24.8904
lhand -19.719 16.2318
lfingers 7.12502
lthumb 6.61113 46.1086
rfemur -44.6716 3.82141 13.7413
rtibia 36.7545
rfoot -12.7664 -7.99825
rtoes 9.65848
lfemur 29.2489 9.41766 -25.7686
ltibia -6.67916e-014
lfoot 1.07188 -0.653394
ltoes -19.4518
1714
root 31.9916 16.0679 -5.36235 1680.03 -83.093 -235.775
lowerback 4.30468 -2.13581 -4.44617
upperback 2.41434 -3.04677 0.765783
thorax 0.34891 -1.59546 3.39129
lowerneck -8.67084 1.34171 0.401872
upperneck -9.66097 1.58743 4.44965
head -1.61094 0.545599 1.35205
rclavicle 3.18055e-015 -8.74653e-015
rhumerus -50.1819 -0.384813 -72.7318
rradius 25.1876
rwrist -8.58813
rhand -23.2897 1.09831
rfingers 7.12502
rthumb 3.16333 -28.858
lclavicle 3.18055e-015 -8.74653e-015
lhumerus -21.4618 -12.3663 87.2906
lradius 64.627
lwrist 24.5672
lhand -20.148 16.2822
lfingers 7.12502
lthumb 6.19694 46.1716
rfemur -44.5432 3.84194 13.793
rtibia 38.2017
rfoot -12.5558 -8.36675
rtoes 9.65461
lfemur 29.8463 9.57476 -25.3221
ltibia 7.63333e-014
lfoot 3.91236 0.209556
ltoes -18.2958
1715
root 31.7486 16.0795 -5.37502 1680.33 -83.2536 -236.175
lowerback 4.37873 -2.1163 -3.97526
upperback 2.33411 -3.00577 0.956369
thorax 0.205999 -1.56616 3.32853
lowerneck -8.71964 1.29735 0.452835
upperneck -9.58491 1.50603 4.03208
head -1.57077 0.513538 1.20834
rclavicle -1.35174e-014 5.56597e-015
rhumerus -49.8654 -0.197235 -73.0836
rradius 25.2578
rwrist -8.80102
rhand -23.2231 1.18591
rfingers 7.12502
rthumb 3.22761 -28.7694
lclavicle -1.35174e-014 5.56597e-015
lhumerus -22.5056 -12.0536 88.0504
lradius 62.2642
lwrist 24.1948
lhand -20.4491 16.3825
lfingers 7.12502
lthumb 5.90628 46.2802
rfemur -44.362 3.86678 13.9103
rtibia 39.5724
rfoot -12.3192 -8.43982
rtoes 9.89196
lfemur 30.4189 9.75734 -24.8242
ltibia -1.59028e-014
lfoot 7.03668 1.41622
ltoes -16.8629
